<svg id="Layer_1" data-name="Layer 1" xmlns="http://www.w3.org/2000/svg" xmlns:xlink="http://www.w3.org/1999/xlink" viewBox="0 0 161.81 164"><defs><style>.cls-1{fill:url(#linear-gradient);}.cls-2{fill:url(#linear-gradient-2);}.cls-3{fill:url(#linear-gradient-3);}.cls-4{fill:url(#linear-gradient-4);}.cls-5{fill:url(#linear-gradient-5);}.cls-6{fill:url(#linear-gradient-6);}.cls-7{fill:url(#linear-gradient-7);}.cls-8{fill:url(#linear-gradient-8);}.cls-9{fill:url(#linear-gradient-9);}.cls-10{fill:url(#linear-gradient-10);}.cls-11{fill:url(#linear-gradient-11);}.cls-12{fill:url(#linear-gradient-12);}.cls-13{fill:url(#linear-gradient-13);}.cls-14{fill:url(#linear-gradient-14);}.cls-15{fill:url(#linear-gradient-15);}.cls-16{fill:url(#linear-gradient-16);}.cls-17{fill:url(#linear-gradient-17);}.cls-18{fill:url(#linear-gradient-18);}.cls-19{fill:url(#linear-gradient-19);}.cls-20{fill:url(#linear-gradient-20);}</style><linearGradient id="linear-gradient" x1="468.09" y1="457.86" x2="568.48" y2="457.86" gradientUnits="userSpaceOnUse"><stop offset="0" stop-color="#debb4d"/><stop offset="1" stop-color="#f2c828"/></linearGradient><linearGradient id="linear-gradient-2" x1="446.94" y1="423.17" x2="469.33" y2="423.17" xlink:href="#linear-gradient"/><linearGradient id="linear-gradient-3" x1="446.98" y1="492.55" x2="469.33" y2="492.55" xlink:href="#linear-gradient"/><linearGradient id="linear-gradient-4" x1="567.26" y1="423.19" x2="589.57" y2="423.19" xlink:href="#linear-gradient"/><linearGradient id="linear-gradient-5" x1="567.24" y1="492.54" x2="589.55" y2="492.54" xlink:href="#linear-gradient"/><linearGradient id="linear-gradient-6" x1="464.84" y1="404.71" x2="482.56" y2="404.71" xlink:href="#linear-gradient"/><linearGradient id="linear-gradient-7" x1="437.38" y1="445.86" x2="462.39" y2="445.86" xlink:href="#linear-gradient"/><linearGradient id="linear-gradient-8" x1="574.17" y1="445.87" x2="599.19" y2="445.87" xlink:href="#linear-gradient"/><linearGradient id="linear-gradient-9" x1="437.46" y1="469.86" x2="462.37" y2="469.86" xlink:href="#linear-gradient"/><linearGradient id="linear-gradient-10" x1="574.18" y1="469.85" x2="599.13" y2="469.85" xlink:href="#linear-gradient"/><linearGradient id="linear-gradient-11" x1="464.71" y1="511.02" x2="482.57" y2="511.02" xlink:href="#linear-gradient"/><linearGradient id="linear-gradient-12" x1="554.08" y1="511.02" x2="571.84" y2="511.02" xlink:href="#linear-gradient"/><linearGradient id="linear-gradient-13" x1="554.01" y1="404.7" x2="571.86" y2="404.7" xlink:href="#linear-gradient"/><linearGradient id="linear-gradient-14" x1="488.99" y1="392.64" x2="500.32" y2="392.64" xlink:href="#linear-gradient"/><linearGradient id="linear-gradient-15" x1="536.29" y1="392.58" x2="547.62" y2="392.58" xlink:href="#linear-gradient"/><linearGradient id="linear-gradient-16" x1="488.98" y1="523.13" x2="500.29" y2="523.13" xlink:href="#linear-gradient"/><linearGradient id="linear-gradient-17" x1="536.26" y1="523.15" x2="547.54" y2="523.15" xlink:href="#linear-gradient"/><linearGradient id="linear-gradient-18" x1="516.35" y1="527.3" x2="520.22" y2="527.3" xlink:href="#linear-gradient"/><linearGradient id="linear-gradient-19" x1="516.37" y1="388.42" x2="520.22" y2="388.42" xlink:href="#linear-gradient"/><linearGradient id="linear-gradient-20" x1="31.75" y1="81.02" x2="131.16" y2="81.02" xlink:href="#linear-gradient"/></defs><path class="cls-1" d="M468.13,457.88c0-.64,0-1.28,0-1.92-.14-1.5.36-3,.25-4.46.52-1.85.58-3.78,1.16-5.63.34-1.1.59-2.23,1-3.32s.73-2.17,1.14-3.25a45.67,45.67,0,0,1,2.59-5.64c.74-1.39,1.66-2.69,2.53-4a50.83,50.83,0,0,1,3.36-4.38,61.16,61.16,0,0,1,5.15-5.28,43.93,43.93,0,0,1,6.61-4.86,49.1,49.1,0,0,1,5.4-2.9c2-.93,4.11-1.66,6.21-2.39,1.37-.48,2.81-.72,4.19-1.16.68-.22,1.51-.05,2.16-.31s1.17,0,1.68-.29,1.18,0,1.73-.16c1.84-.47,3.7-.13,5.55-.22.88,0,1.76,0,2.64,0a215,215,0,0,0,3.77.45,10.92,10.92,0,0,0,2.17.29,17.18,17.18,0,0,1,2.55.51,17.59,17.59,0,0,0,1.73.45c.58.13,1.15.34,1.71.51.73.24,1.46.53,2.19.8a48.1,48.1,0,0,1,6.67,3,71.94,71.94,0,0,1,6.06,3.92,52.61,52.61,0,0,1,7.8,7.18,44,44,0,0,1,4.45,5.94,46,46,0,0,1,3.28,5.85,48.75,48.75,0,0,1,2.21,5.68c.27.81.45,1.65.74,2.46s.35,1.66.68,2.47a8.72,8.72,0,0,1,.27,1.93c.06.37.16.73.23,1.1s-.15.72.21,1c.06.05,0,.23,0,.34,0,1.81.38,3.6.25,5.42a18.16,18.16,0,0,0,0,2.76c.11,1.51-.37,3-.25,4.46-.53,1.85-.59,3.79-1.17,5.64-.34,1.09-.58,2.22-1,3.32s-.73,2.17-1.13,3.24a48.13,48.13,0,0,1-2.6,5.65,41.73,41.73,0,0,1-2.45,3.9q-1.5,2.17-3.19,4.21a60.11,60.11,0,0,1-5.4,5.54,42.13,42.13,0,0,1-6.61,4.86,45.15,45.15,0,0,1-5.4,2.9,65.72,65.72,0,0,1-6.21,2.39c-1.37.48-2.81.71-4.19,1.17a16.87,16.87,0,0,1-2,.28,6.93,6.93,0,0,1-1.22.24c-.41,0-.81.18-1.23.21a7.11,7.11,0,0,0-1.31,0,14,14,0,0,1-3.87.21c-1.31,0-2.63,0-4,0-1.14,0-2.24-.42-3.39-.25a19.81,19.81,0,0,0-3.43-.67c-1-.23-2-.56-3.05-.74A28.73,28.73,0,0,1,501,505a42,42,0,0,1-6.68-3c-2.1-1.18-4.08-2.55-6.06-3.93a55.71,55.71,0,0,1-7.64-7,34.21,34.21,0,0,1-3-3.68,39.08,39.08,0,0,1-2.53-3.75c-.93-1.6-1.76-3.27-2.55-4.94-.56-1.17-1-2.39-1.45-3.6s-.92-2.43-1.26-3.68c-.16-.6-.32-1.23-.44-1.85s-.22-1.21-.37-1.78a24.77,24.77,0,0,0-.68-3.43.65.65,0,0,1,0-.24c-.08-1.05-.19-2.09-.23-3.14S468.13,458.92,468.13,457.88ZM518,411.78c-1.25.15-2.89-.26-4.47.24a17.41,17.41,0,0,0-4,.52,7.61,7.61,0,0,0-1.44.25c-.58.2-1.16.3-1.74.44s-1.22.36-1.83.52a12.37,12.37,0,0,0-1.88.66c-.64.29-1.32.47-2,.74a19.81,19.81,0,0,0-1.81.84c-1.26.65-2.51,1.29-3.74,2a47.14,47.14,0,0,0-4,2.58c-.84.61-1.66,1.24-2.46,1.91-.42.34-.83.69-1.23,1.06a6.63,6.63,0,0,1-1.12,1.07c-.47.25-.52.93-1.14.94-.61,1.21-1.85,1.88-2.57,3-.57.91-1.43,1.64-2,2.55a63.93,63.93,0,0,0-3.53,5.85q-1.32,2.76-2.42,5.59c-.31.8-.53,1.63-.76,2.45a36.52,36.52,0,0,0-1,4.38,4.91,4.91,0,0,0-.24,1.82c-.42.43-.17,1-.24,1.46a14.32,14.32,0,0,0-.23,1.58c0,.88,0,1.76,0,2.64s0,1.76,0,2.64a9.41,9.41,0,0,0,.13,2.7c.27.8,0,1.66.29,2.51a14.53,14.53,0,0,1,.49,2.43,28.32,28.32,0,0,0,1.06,4.5,30.93,30.93,0,0,0,1.83,4.76,43.27,43.27,0,0,0,3.13,5.9c1.28,2,2.71,3.85,4.16,5.71a6,6,0,0,0,1.1,1.1c.42.32.58.88,1.07,1.13s.66.67,1,1a43.62,43.62,0,0,0,4.55,3.8,49,49,0,0,0,5.71,3.61,43.71,43.71,0,0,0,4.22,2l1.76.68c1,.39,2.05.66,3.08.95s2.12.5,3.17.76a22.81,22.81,0,0,0,3.2.61,20.07,20.07,0,0,0,4.1.31c.71-.07,1.44,0,2.16,0,1,0,2,0,3,0s1.92-.42,2.9-.25a.49.49,0,0,0,.24,0,15.22,15.22,0,0,1,3.19-.67,42.27,42.27,0,0,0,4.37-1.09,36,36,0,0,0,5.76-2.3c1.2-.59,2.37-1.23,3.54-1.87a37.8,37.8,0,0,0,4.06-2.66,14.18,14.18,0,0,0,2.43-1.94c.61-.11.84-.68,1.25-1s.68-.86,1.13-1.06.51-.94,1.13-1c.6-1.16,1.79-1.82,2.49-2.92.58-.9,1.42-1.64,2-2.54a61.71,61.71,0,0,0,3.58-6,39.62,39.62,0,0,0,2.24-5.19,29.29,29.29,0,0,0,1.69-6.38,8.78,8.78,0,0,0,.66-3.18,26.75,26.75,0,0,0,.31-4.82c-.08-1.35,0-2.72,0-4.08a18,18,0,0,0-.27-3.37c-.25-1.06-.45-2.14-.63-3.2a42.29,42.29,0,0,0-1.11-4.47,34,34,0,0,0-2.31-5.88,42.69,42.69,0,0,0-2.64-4.78c-.75-1.13-1.51-2.26-2.31-3.36-.61-.84-1.27-1.65-2-2.43-.53-.6-1.19-1.09-1.67-1.72s-1.09-1-1.6-1.57a33.19,33.19,0,0,0-4.18-3.49,40.13,40.13,0,0,0-5.41-3.48c-1.57-.82-3.18-1.59-4.79-2.35-.5-.23-1-.34-1.57-.54a25.58,25.58,0,0,0-3.2-1c-.79-.21-1.55-.52-2.35-.7a8.87,8.87,0,0,1-1.91-.3c-.66-.33-1.41.06-2-.44-1.13-.08-2.26-.18-3.38-.23C520.18,411.75,519.26,411.78,518,411.78Z" transform="translate(-437.38 -375.86)"/><path class="cls-2" d="M469.33,429.32l-1.13,1.12a3.19,3.19,0,0,1-2.71-.75,13,13,0,0,0-1.84-1.07c-1.31-.71-2.61-1.43-3.88-2.21s-2.67-1.48-4-2.31-2.48-1.36-3.7-2.06-2.43-1.47-3.65-2.2c-.35-.21-.73-.38-1.16-.6l-.36-1.88c.39-.68.63-1.31,1.19-1.36,1.52-.56,2.43.41,3.42,1,.78.45,1.58.85,2.34,1.33,1.39.88,2.8,1.73,4.24,2.51,1.27.7,2.51,1.46,3.77,2.17,1.79,1,3.62,1.94,5.32,3.11a12.07,12.07,0,0,0,1.25.74,1.49,1.49,0,0,1,.86,1.45Z" transform="translate(-437.38 -375.86)"/><path class="cls-3" d="M466.78,485.24a2.28,2.28,0,0,1,2.06.56,2.59,2.59,0,0,1,.45,2.17c-.14.7-.77.94-1.25,1.26-1.08.72-2.25,1.32-3.37,2-1.74,1-3.56,1.9-5.22,3-.61.42-1.32.69-2,1.07-1.44.86-2.88,1.73-4.34,2.56-1.14.64-2.25,1.33-3.41,2a2.26,2.26,0,0,1-2.47-.83,2.6,2.6,0,0,1,.1-2.53l3.55-2.09c1.18-.71,2.43-1.31,3.57-2.11a19.25,19.25,0,0,1,1.95-1.06c1.88-1,3.68-2.11,5.53-3.16C463.59,487.14,465.24,486.26,466.78,485.24Z" transform="translate(-437.38 -375.86)"/><path class="cls-4" d="M569.71,430.49a2.23,2.23,0,0,1-2-.57c-.65-.65-.44-1.44-.45-2.16s.78-1,1.26-1.27c1.11-.73,2.34-1.29,3.48-2,1.71-1.06,3.5-2,5.22-3.07,1.18-.74,2.45-1.38,3.68-2.08,2-1.12,3.94-2.28,6-3.47a2.56,2.56,0,0,1,2.17.57,2.27,2.27,0,0,1,.48,1.86l-.56,1.09c-.65.36-1.37.68-2,1.11-.93.63-1.94,1.12-2.9,1.69-1.23.72-2.43,1.47-3.65,2.2-.71.41-1.43.79-2.15,1.19-1.4.78-2.79,1.59-4.14,2.45-.69.44-1.43.8-2.14,1.19Z" transform="translate(-437.38 -375.86)"/><path class="cls-5" d="M567.29,488c-.18-1.32,0-2.32,1.41-2.82h1c1.38.78,2.72,1.51,4,2.3s2.5,1.34,3.66,2.18a16.63,16.63,0,0,0,2,1c1.86,1,3.67,2.13,5.52,3.17a43.42,43.42,0,0,1,3.76,2.25,2,2,0,0,0,.35.15l.57,1.09c0,1.52,0,1.65-1.3,2.46H586.9c-1.68-1-3.28-1.94-4.9-2.88-1.16-.67-2.3-1.4-3.48-2s-2.41-1.49-3.69-2.09c-.91-.42-1.69-1.12-2.6-1.56-1.2-.6-2.32-1.35-3.48-2C567.78,488.75,567.7,488.7,567.29,488Z" transform="translate(-437.38 -375.86)"/><path class="cls-6" d="M482.54,413.21a2.89,2.89,0,0,1-1.8,1.71,2,2,0,0,1-1.79-.83,24.49,24.49,0,0,1-2.3-2.77,20.07,20.07,0,0,0-1.35-1.6c-.7-.79-1.48-1.52-2.1-2.37-.89-1.21-2-2.26-2.83-3.5-.56-.79-1.35-1.42-1.92-2.21s-1.32-1.4-1.81-2.24c-.34-.56-.93-.91-1.28-1.51-.58-1-.64-1-.36-2.06a.83.83,0,0,0,0-.22c.6-.72,1.26-1.31,2.19-1.11l1.13.59s0,.18.05.26c.73.82,1.52,1.59,2.19,2.46.94,1.21,2,2.3,2.91,3.58a17.51,17.51,0,0,0,1.43,1.69c1.1,1.27,2.24,2.5,3.29,3.8,1.2,1.47,2.41,2.93,3.65,4.37A2.48,2.48,0,0,1,482.54,413.21Z" transform="translate(-437.38 -375.86)"/><path class="cls-7" d="M439,445.92c-.28-.17-1-.28-1.24-.86s-.62-1-.16-1.72c.33-.49.48-1.09,1.13-1.32h1.91c.45.58,1.26-.1,1.72.48a5.36,5.36,0,0,1,1.82.23c1.24.32,2.54.35,3.78.71.65.19,1.4.08,2.05.28,1,.33,2.19.17,3.18.7a7.89,7.89,0,0,1,1.82.23c1.15.05,2.24.51,3.4.49.22.33.55.23.86.24a1.44,1.44,0,0,1,.88.21c.21.15.61,0,.92,0,.41.5,1.24.63,1.3,1.38a2.55,2.55,0,0,1-.42,2.07l-1.22.63a9.68,9.68,0,0,1-2.27-.29,8,8,0,0,0-1.23-.19A3.36,3.36,0,0,0,456,449c-.54.08-1-.41-1.58-.23-1-.47-2.1-.21-3.06-.72a5.09,5.09,0,0,1-2.05-.27,29.25,29.25,0,0,1-3.34-.61c-.61-.16-1.27-.2-1.91-.31a5.51,5.51,0,0,0-1.94-.25c-.42-.46-1.07,0-1.43-.27S439.67,446.28,439,445.92Z" transform="translate(-437.38 -375.86)"/><path class="cls-8" d="M575.87,449.7l-1.19-.61a2.08,2.08,0,0,1-.45-2c.1-.71.6-1.21,1.54-1.52a2.19,2.19,0,0,0,1.09-.19c.38-.21.86,0,1.35-.21a6.79,6.79,0,0,1,1.68-.27c1.13-.17,2.26-.38,3.39-.55,1.38-.2,2.74-.53,4.13-.72.65-.09,1.32-.27,2-.42s1.39-.12,2-.27a22.37,22.37,0,0,1,4.15-.71c.72-.45,1.52-.14,2-.22.89.21,1,.81,1.37,1.3.46.7,0,1.22-.16,1.72s-1,.69-1.51,1c-.42.14-.92-.14-1.42.22s-.94,0-1.46.22a10.51,10.51,0,0,1-1.68.28c-1,.21-2.13.25-3.15.53-.5.13-1,.08-1.46.23s-.92.1-1.34.23c-1,.34-2.16.26-3.2.67a10.92,10.92,0,0,1-1.69.24c-1.12.21-2.26.39-3.38.57a9.44,9.44,0,0,0-2.22.41A1,1,0,0,1,575.87,449.7Z" transform="translate(-437.38 -375.86)"/><path class="cls-9" d="M462.37,467.34v1.33a2.06,2.06,0,0,1-1.47,1.42c-.37.08-.79-.1-1.1.25a6.7,6.7,0,0,0-1.94.24c-.3,0-.65-.12-.87.22-1.11,0-2.17.41-3.27.5a10.28,10.28,0,0,0-2,.43c-.55.15-1.17-.1-1.68.29-1.16-.09-2.23.48-3.39.52a8.38,8.38,0,0,0-1.46.24,7,7,0,0,0-1.33.24,8.72,8.72,0,0,1-1.47.22,10.93,10.93,0,0,1-3.16.46,1.85,1.85,0,0,1-1.69-2.44c.13-.41.19-.88.61-1.05a4.37,4.37,0,0,1,1.55-.61,9.34,9.34,0,0,0,2.34-.41,5.79,5.79,0,0,1,.94-.06,5.66,5.66,0,0,1,.86-.21,9.94,9.94,0,0,0,1.81-.32,12.66,12.66,0,0,0,1.75-.36,14.1,14.1,0,0,1,1.8-.29c1.13-.19,2.28-.27,3.39-.53.32-.07.65-.16,1-.21s.65-.2,1-.22c1.14-.08,2.24-.5,3.39-.49.57-.5,1.4,0,2-.48A2.45,2.45,0,0,1,462.37,467.34Z" transform="translate(-437.38 -375.86)"/><path class="cls-10" d="M575.35,470.06l-1.17-1.17a8.09,8.09,0,0,1,.11-1.61,2.06,2.06,0,0,1,2.3-1.21c.66.27,1.33.09,2,.39a8.27,8.27,0,0,0,2.15.29c.3,0,.57.17.86.23s.59,0,.89.2.62,0,.93.05.57.21.86.22c.66,0,1.26.42,1.94.25.52.52,1.25.1,1.87.43.44.24,1.11.07,1.68.27a4.87,4.87,0,0,0,1.57.25,10.38,10.38,0,0,1,1.57.31,6.76,6.76,0,0,1,1.45.22c.47.18.94.08,1.35.23a3.16,3.16,0,0,1,2.36.66,1.4,1.4,0,0,1,.89.94,1.82,1.82,0,0,1,0,1.61,1.67,1.67,0,0,1-1.81,1.08c-.49-.07-1,.12-1.48-.2s-.95,0-1.46-.24a6,6,0,0,0-1.57-.24c-1.13-.16-2.26-.36-3.38-.57a18.7,18.7,0,0,1-3.2-.64,7.34,7.34,0,0,0-1.57-.22c-1.14-.15-2.27-.37-3.39-.58a22,22,0,0,1-3.19-.64A14.34,14.34,0,0,0,575.35,470.06Z" transform="translate(-437.38 -375.86)"/><path class="cls-11" d="M480.86,500.82a2.9,2.9,0,0,1,1.69,1.78,2.61,2.61,0,0,1-.84,2c-1.15,1.35-2.32,2.69-3.4,4.11-.54.71-1.18,1.35-1.77,2-.35.41-.67.84-1,1.25a12.41,12.41,0,0,0-1,1.24c-.38.58-.91,1-1.35,1.6-1,1.26-2.12,2.39-3.1,3.65-.46.59-.95,1.13-1.46,1.67a2.72,2.72,0,0,0-.28.51c-1.87.8-2,.79-3.27-.53,0,0,0-.08,0-.11,0-.47-.47-.88-.23-1.34a7.84,7.84,0,0,1,1.1-1.58c1.14-1.22,2.11-2.6,3.27-3.82.82-.86,1.55-1.83,2.29-2.76.93-1.18,2-2.26,2.84-3.49.56-.8,1.35-1.43,1.92-2.22s1.3-1.41,1.82-2.23a7.49,7.49,0,0,1,1.42-1.45A1.82,1.82,0,0,1,480.86,500.82Z" transform="translate(-437.38 -375.86)"/><path class="cls-12" d="M570.39,521.15a2.64,2.64,0,0,1-2.11-.5,3.54,3.54,0,0,0-.37-.56c-1.13-1.3-2.29-2.56-3.38-3.89-.76-.92-1.48-1.88-2.29-2.77s-1.85-2.09-2.72-3.19Q557.8,508.07,556,506c-.7-.8-1.29-1.69-1.87-2.44-.05-1.47.16-1.84,1.47-2.67a2.15,2.15,0,0,1,2.1.81,27.24,27.24,0,0,1,2.21,2.69c.43.59,1,1.13,1.43,1.69,1.1,1.26,2.23,2.5,3.3,3.79,1.29,1.55,2.52,3.14,3.89,4.63.83.91,1.52,1.95,2.39,2.85a5.25,5.25,0,0,1,.68,1c.15.26.36.52.24.86a3.81,3.81,0,0,1-.45,1.12A5.46,5.46,0,0,1,570.39,521.15Z" transform="translate(-437.38 -375.86)"/><path class="cls-13" d="M555.75,414.91a2.87,2.87,0,0,1-1.71-1.76,2.62,2.62,0,0,1,.83-2.06c1.15-1.35,2.32-2.69,3.39-4.11.55-.71,1.25-1.31,1.76-2,.62-.9,1.48-1.57,2.07-2.49.46-.71,1.14-1.28,1.67-1.95a48.64,48.64,0,0,0,3.08-3.77,8,8,0,0,1,1-1c.18-.19.32-.41.55-.7l1-.51c.88-.2,1.55.37,2.16,1.09,0,0,0,.06,0,.1,0,.46.47.87.22,1.33a10.14,10.14,0,0,1-1.1,1.58c-.59.73-1.25,1.4-1.85,2.12s-1.12,1.46-1.71,2.17-1.08,1.22-1.6,1.85c-.66.81-1.38,1.56-2,2.42a16.38,16.38,0,0,1-1.43,1.69c-1.1,1.27-2.24,2.5-3.28,3.81-.39.49-.79.95-1.21,1.41A2,2,0,0,1,555.75,414.91Z" transform="translate(-437.38 -375.86)"/><path class="cls-14" d="M498.92,404.63c-.47-.06-1-.09-1.53-.2-.89-.18-1.19-1-1.38-1.67-.54-1.78-1.27-3.47-1.9-5.21-.55-1.49-.89-3.07-1.53-4.52-.88-2-1.34-4.15-2.37-6.09a14.84,14.84,0,0,0-1-3.16,3.88,3.88,0,0,1-.11-1.84c.09-.59.64-.91,1.24-1.15a1.69,1.69,0,0,1,1.27,0,2.14,2.14,0,0,1,1.49,1.66c.52,1.74,1.31,3.38,1.83,5.12.46,1.56,1.08,3.07,1.62,4.6.48,1.35,1,2.7,1.5,4,.71,1.94,1.54,3.85,2.06,5.86.57.63.09,1.14-.23,1.63A7.12,7.12,0,0,1,498.92,404.63Z" transform="translate(-437.38 -375.86)"/><path class="cls-15" d="M547.16,381.23a3.18,3.18,0,0,1,.09,3.13c-.67,1.64-1.24,3.32-1.85,5-.39,1.07-.8,2.14-1.19,3.21-.57,1.57-1.12,3.13-1.68,4.7-.37,1-.7,2-1.11,3-.32.76-.54,1.54-.81,2.3s-.6,1.66-1.75,2h-1.35a9.51,9.51,0,0,1-.8-.9,1.34,1.34,0,0,1-.27-1.56,22.49,22.49,0,0,0,.87-2.51c.78-2.19,1.6-4.37,2.38-6.56.36-1,.71-2,1.13-3s.65-2.06,1-3c.58-1.52,1.22-3,1.66-4.59a2.65,2.65,0,0,1,1.33-1.57,1.47,1.47,0,0,1,1.6,0C546.65,381,546.88,381.08,547.16,381.23Z" transform="translate(-437.38 -375.86)"/><path class="cls-16" d="M497.76,511.14H499c.3.49.87.73,1.12,1.33a1.58,1.58,0,0,1,.16.88,6.08,6.08,0,0,1-.54,1.57,17.77,17.77,0,0,0-1.29,3.3c-.46,1.52-1.06,3-1.57,4.51-.46,1.35-1.05,2.69-1.49,4-.72,2.18-1.73,4.25-2.31,6.48a6.56,6.56,0,0,1-.6,1.18c-1.51,1.18-2.58.7-3.38-.5-.37-1.4.29-2.5.65-3.65s.87-2.27,1.23-3.44.77-2.24,1.22-3.33.66-2,1.1-2.9.63-2,1-2.93c.61-1.59,1.22-3.18,1.75-4.79A2.29,2.29,0,0,1,497.76,511.14Z" transform="translate(-437.38 -375.86)"/><path class="cls-17" d="M547.54,533.61c-.15,1-.89,1.16-1.47,1.45-.75.38-1.24-.38-1.85-.45a10.36,10.36,0,0,1-1.05-2.53c-.48-1.35-1.2-2.64-1.56-4-.4-1.55-1-3-1.54-4.52-.47-1.35-1.05-2.69-1.5-4-.66-2-1.57-3.83-2.07-5.85-.54-.64,0-1.15.26-1.63a5.91,5.91,0,0,1,.86-.88,11.28,11.28,0,0,1,1.59.14,2.31,2.31,0,0,1,1.36,1.72c.51,1.74,1.3,3.38,1.82,5.11.47,1.57,1.08,3.08,1.62,4.61.48,1.35,1,2.7,1.51,4,.68,1.72,1.21,3.5,1.9,5.21C547.68,532.6,547.43,533.21,547.54,533.61Z" transform="translate(-437.38 -375.86)"/><path class="cls-18" d="M516.75,515.31l.75-.57h1.57l.88.66a2.58,2.58,0,0,1,.25.56,3.35,3.35,0,0,1,0,.71q0,10.55,0,21.09a1.92,1.92,0,0,1-.13,1,2,2,0,0,1-2.53.93,1.76,1.76,0,0,1-1.19-1.84c0-7.11,0-14.22,0-21.32C516.37,516.13,516.25,515.68,516.75,515.31Z" transform="translate(-437.38 -375.86)"/><path class="cls-19" d="M519.87,400.38l-.8.6h-1.63l-1.07-1.09V398.8q0-10.43,0-20.84a1.94,1.94,0,0,1,.13-1A2,2,0,0,1,519,376a1.76,1.76,0,0,1,1.18,1.84c0,7.11,0,14.22,0,21.32A1.51,1.51,0,0,1,519.87,400.38Z" transform="translate(-437.38 -375.86)"/><ellipse class="cls-20" cx="81.45" cy="81.02" rx="49.71" ry="50.74"/></svg>